<svg xmlns="http://www.w3.org/2000/svg" width="455" height="322" fill="none" viewBox="0 0 455 322"><g clip-path="url(#a)"><path fill="#fff" d="M454.45 124.34c-1.3-14-7.16-21.84-12.63-27.8-.25-3.76.85-8.53 1.58-11.69 1.03-3.432 2.231-6.81 3.6-10.12 2.37-6 5-12.77 1.25-20.16l-.07-.14c-.21-.41-.43-.81-.69-1.23a14.5 14.5 0 0 0-2.94-3.35c-.43-.36-.8-.62-1.06-.8l-.11-.07a14 14 0 0 0-1.25-.76l-.71-.35a15.7 15.7 0 0 0-6.75-1.46c-9.29 0-20.22 7.84-27 15.71a48.9 48.9 0 0 0-11 19.28c-2-.19-4-.29-5.81-.29-8.28 0-14.43 2-18.81 6-8.35 7.71-10.67 19.93-10.34 28.16a45.74 45.74 0 0 0-2 23.5 11.7 11.7 0 0 0 .24 4.45c-.14 2.236-.11 4.479.09 6.71a42.2 42.2 0 0 0 4.32 15.23l-.86.5a19.8 19.8 0 0 0-6.54-2.46c-5.85-4.21-13.42-8.94-22.07-11.8a163.4 163.4 0 0 0-20-68.12c-17.13-30.52-44-52.49-77.68-63.56-6.21-2-10.13-3.93-11.67-5.62a14.3 14.3 0 0 0-6.23-4.29q-.645-.217-1.31-.36a11.6 11.6 0 0 0-2.55-.28h-1A11 11 0 0 0 213 7.82a11 11 0 0 0-.54-1.31 11.65 11.65 0 0 0-7.93-6.18c-.9-.22-1.823-.331-2.75-.33-.745 0-1.488.07-2.22.21a37.3 37.3 0 0 0-14 5.7 32.4 32.4 0 0 0-7.28 6.9h-.55a11.62 11.62 0 0 0-9.29 4.64 21.5 21.5 0 0 0-3.18 6 29.9 29.9 0 0 0-8.86 3.84c-6 3.91-9.38 9.67-9.38 15.81 0 1.53.302 3.047.89 4.46l-.18.26c-.25.34-.49.69-.79 1.12s-.55.8-.81 1.2-.5.75-.73 1.12l-.11.18-.12-.11c-.47-.47-1-.92-1.49-1.36l-.75-.6-.09-.07c-.3-.23-.61-.46-.95-.7s-.59-.41-.92-.62-.68-.43-1.07-.66-.56-.33-.87-.49c-.56-.3-1.13-.58-1.71-.83l-.4-.17a26.4 26.4 0 0 0-10.36-2.11H26.6A26.63 26.63 0 0 0 0 70.35v51.44a26.3 26.3 0 0 0 4.72 15.09q.273.45.59.87c.19.26.4.5.61.75s.48.58.77.91.58.64.86.93.83.81 1.24 1.18c.25.24.51.47.79.71.72.59 1.46 1.15 2.21 1.65.21.14.42.28.65.41.61.39 1.21.73 1.8 1.05l.84.41c.59.28 1.19.55 1.84.8l.91.34c.62.21 1.24.4 1.9.58l.94.24c.64.14 1.3.27 2 .38l.86.12q1.495.174 3 .18h21.31a20 20 0 0 0-1 1.73 20.25 20.25 0 0 0-2.53 11l-.11.22a18 18 0 0 0-.79 1.76c-.1.25-.19.5-.27.72a19 19 0 0 0-.58 2.15c-.05.24-.1.47-.13.68a16 16 0 0 0-.24 2.14v.76q-.014 1.043.1 2.08c0 .25.06.5.09.74q.152 1.012.42 2c0 .21.11.41.18.62.17.55.36 1.09.57 1.6.07.2.16.39.25.6q.453.946 1 1.84l.34.55a19 19 0 0 0 1.21 1.67l.4.47q.705.81 1.5 1.53l.4.35q.824.706 1.73 1.3l.37.24q.864.555 1.79 1l.56.26q1.087.471 2.23.78l.58.16q1.207.281 2.44.4H59l.33.42c.2.25.4.5.64.76s.62.69.92 1c1.13 6.63 2 14.32 3 22.38 1.15 9.53 2.33 19.39 4 29.31v.11c4.16 24.4 11.58 42.61 22.65 55.64l.71.81.44.5c.45.5.89 1 1.34 1.48s.88.9 1.32 1.34l.65.51c.33.34.67.68 1 1l.16.16c.72.66 1.48 1.31 2.34 2l.39.32c.78.6 1.61 1.2 2.46 1.77l.57.37c.86.54 1.72 1.05 2.59 1.52l.55.28c1 .51 1.9.93 2.72 1.27l.49.19c.83.32 1.68.62 2.57.9l.54.17c.91.26 1.85.49 2.92.71l.62.13c1 .17 1.92.31 2.89.41l.63.06c1 .09 2 .14 3.08.15h.34c.92 0 1.87 0 2.75-.11h.51c.94-.09 1.91-.21 3-.38l.57-.1c1-.16 1.93-.36 2.91-.6l.57-.15c1-.26 2-.54 2.93-.84l.37-.12c.92-.31 1.84-.64 2.73-1l.42-.16c.94-.38 1.9-.8 3-1.32l.41-.19c.94-.45 1.88-.93 2.84-1.44l.59-.33c20.85 11.32 46.92 13.13 76.25 14.16 15.37.54 26.72.78 36.82.78 9.54 0 18.51-.22 27.41-.67l2.4-.13 3-.18c3.22-.19 6.58-.43 9.93-.69h.14c9.19-.72 19.18-1.73 30.53-3.07l4.31-.51a11.645 11.645 0 0 0 9.78-8.39c.61-2.17 1.13-4.51 1.64-7.35l5-22.44c.34.08.67.15 1 .21l1.37.27 1 .15h.27l1.12.15 1 .09h.29l.79.06h2.82c.33 0 .65 0 1.05-.05h.18c.33 0 .67 0 1-.06h.25l.95-.11h.17l1.05-.14h.31l.85-.16c.5-.09 1-.19 1.51-.3l.62-.16a35 35 0 0 0 4.32-1.36c19.9-7.63 37.67-27.15 52.82-58 13.07-26.65 20.54-54.37 23.14-65v-.06a69.4 69.4 0 0 0 4.11-24.5c.03-1.6-.06-3.21-.21-4.87m-298.27 43.94c-.13 0-.85.24-1.05.31-.43.13-.87.28-1.32.44l-.6.22c-.63.23-1.25.49-1.87.75l-.21.1c-.55.24-1.1.5-1.63.76l-.63.33-1.19.64c-.21.11-.41.24-.61.36l-.1.06c-.36.21-.72.42-1.05.63s-.45.29-.76.5l-1 .69-.7.51-1 .73-.7.57c-.32.25-.64.52-1 .8l-.67.58c-.32.29-.64.58-1 .92l-.57.54c-.33.32-.65.65-1 1 0 0-.4.41-.54.57-.38.39-.75.81-1.12 1.23l-.34.39c-.48.56-1 1.13-1.39 1.68l-.37.48c-.34.44-.68.89-1 1.36-.13.17-.48.67-.48.67-.28.4-.56.79-.82 1.19l-.52.79c-.25.39-.5.77-.75 1.18s-.35.56-.51.85-.47.78-.7 1.17-.33.59-.5.9-.45.81-.66 1.21l-.49.94c-.13.26-.27.53-.4.81l-19.38-24.24c.06-.27.11-.54.15-.82.21-1.375.18-2.776-.09-4.14a11 11 0 0 0-.37-1.44c-.15-.47-.31-.9-.48-1.3s-.26-.58-.47-1c-.11-.21-.22-.42-.39-.72s-.28-.47-.43-.69-.21-.33-.37-.55l-.44-.62-.31-.41-.7-.86a20.66 20.66 0 0 0 0-10h22.85a26.52 26.52 0 0 0 19.88-8.95c2.84 6.55 5.72 12.33 8.07 17l.79 1.52c.16.29.35.65.53 1a20.5 20.5 0 0 0-.26 6.22c.093.954.308 1.891.64 2.79q.003.176.03.35"/><path fill="#CAA77A" d="M138.74 208.49c-3.5 4.34-7.58 12-10.8 20.92-9.22-16.86-18.88-27.89-25.86-38.43-.63-1-13.72-24.13-14.22-25-8.52 2.5-12.64 1.85-21.36 3.28 6.52 13.87 7.4 42.91 12.12 70.5 4.4 25.71 12.85 44 24.45 54.82 20.91 19.53 53.37-1.32 84.26-50.29-16.6-3.19-42.66-28.36-48.59-35.8"/><path fill="#3F2719" d="M187.33 244.26c-30.89 48.95-63.36 69.81-84.25 50.28-11.6-10.84-20.08-29.11-24.47-54.83-4.71-27.59-5.6-56.62-12.12-70.49 2.68-.43 9.9 20.78 13.06 32.91 4.78 18.32 10.4 53 20 69.43 10.25 17.5 25 23.18 32.42 21s11.3-14.17 13.08-19.58c2.53-7.71 5.8-16.15 7-22.35 1.72-8.61 1.9-18.78-.62-19.83 4.22 1.81 8.19 3.45 11 4.61.26-1.25.53-2.6.79-4 8.27 6.18 17.04 11.51 24.11 12.85" opacity="0.23" style="mix-blend-mode:multiply"/><path fill="#3F2719" d="M127.42 228.34c3.66 6.8 10.82 21.06 13.27 30 1-8.4-5.26-28.38-10.6-34.81-.89 1.64-2.67 4.81-2.67 4.81" opacity="0.23" style="mix-blend-mode:multiply"/><path stroke="#2D1F04" stroke-linecap="round" stroke-linejoin="round" stroke-width="2.62" d="M131.8 220.74a43.4 43.4 0 0 0-3.86 8.67c-9.22-16.86-19.38-27.57-25.86-38.43s-14-24.76-14.22-25m-20.54 3.11c7.19 23.26 9.12 57.82 11.3 70.63 3.5 20.65 10.32 41.61 24.45 54.82 11.86 11.08 27.45 9.16 44.35-3.52"/><path fill="#fff" d="M140.7 70.35v51.44a15 15 0 0 1-15 15H98.36a11.16 11.16 0 0 0-8.25 3.65 11.15 11.15 0 0 0-2.85 8.56l2.22 23a12.35 12.35 0 1 1-24.58 0l2.22-23A11.147 11.147 0 0 0 56 136.76H25.78a15 15 0 0 1-15-15V70.35a15 15 0 0 1 15-15h99.94a15 15 0 0 1 14.98 15"/><path fill="#3F2719" d="M140.69 70.35v51.43a15 15 0 0 1-15 15H98.36a11.15 11.15 0 0 0-8.251 3.656 11.17 11.17 0 0 0-2.85 8.564l2.22 23a12.34 12.34 0 0 1-16.212 12.916A12.34 12.34 0 0 1 66.89 180a12.343 12.343 0 0 0 15.66-6.621 12.34 12.34 0 0 0 .97-6.109l-2.21-23a11.15 11.15 0 0 1 6.573-11.313A11.15 11.15 0 0 1 92.41 132h27.35a14.995 14.995 0 0 0 13.858-9.26 15 15 0 0 0 1.142-5.74V65.61a14.9 14.9 0 0 0-3-9 15 15 0 0 1 8.93 13.74M67 145.86a11.324 11.324 0 0 0-11-9.1H25.77a15 15 0 0 1-12-6 14.9 14.9 0 0 0 6.05 1.24H57.1a11 11 0 0 1 8.65 4.12c2.02 2.56 1.98 6.41 1.25 9.74" opacity="0.23" style="mix-blend-mode:multiply"/><path stroke="#2D1F04" stroke-linecap="round" stroke-linejoin="round" stroke-width="2.62" d="M140.7 70.35v51.44a15 15 0 0 1-15 15H98.36a11.16 11.16 0 0 0-8.25 3.65 11.15 11.15 0 0 0-2.85 8.56l2.22 23a12.35 12.35 0 1 1-24.58 0l2.22-23A11.147 11.147 0 0 0 56 136.76H25.78a15 15 0 0 1-15-15V70.35a15 15 0 0 1 15-15h99.94a15 15 0 0 1 14.98 15"/><path fill="#000" d="M48.55 104.37h8.25v7.79H29.89v-7.79h8.63V87.73a31.4 31.4 0 0 1-7.68 2.57v-7.87Q38.3 80.81 41 76.64h7.59zm23.73 8.33a11.8 11.8 0 0 1-10-5q-3.69-5-3.69-13.11 0-8.32 3.78-13.14a12.17 12.17 0 0 1 10.11-4.82 11.58 11.58 0 0 1 10.17 5.14q3.54 5.13 3.54 13.13t-3.8 13a12.23 12.23 0 0 1-10.11 4.8m.1-7.43c1.47 0 2.45-.94 3-2.81.565-2.52.813-5.1.74-7.68q0-6.69-1-8.74A3 3 0 0 0 72.41 84c-1.37 0-2.31.9-2.83 2.71a27.5 27.5 0 0 0-.79 7.44q0 6.44.79 8.78c.52 1.55 1.42 2.34 2.8 2.34m30.68 7.43a11.8 11.8 0 0 1-10-5q-3.69-5-3.69-13.11 0-8.32 3.78-13.14a12.17 12.17 0 0 1 10.11-4.82 11.6 11.6 0 0 1 10.18 5.14q3.52 5.13 3.53 13.13t-3.8 13a12.23 12.23 0 0 1-10.11 4.8m.1-7.43c1.47 0 2.46-.94 3-2.81.569-2.519.821-5.099.75-7.68q0-6.69-1-8.74a3 3 0 0 0-2.72-2.04c-1.37 0-2.31.9-2.83 2.71a28 28 0 0 0-.78 7.44q0 6.44.78 8.78c.52 1.55 1.45 2.34 2.8 2.34"/><path fill="#B6B1AE" d="M60.56 176c19.52-5.42 34.31-5.43 34.82-7.59S80 151.2 65.49 150.18c-7-.49-13 7.9-9.33 13.57-6.78 5.25-1.73 13.95 4.4 12.25"/><path fill="#3F2719" d="M95.38 168.39c-.51 2.17-15.29 2.18-34.81 7.6-5.5 1.54-10.14-5.29-6.16-10.51 2.45 1.15 7.53.89 12.48.46s14.26-3.26 25.11-2.14c2.26 2.2 3.53 3.96 3.38 4.59" opacity="0.23" style="mix-blend-mode:multiply"/><path stroke="#2D1F04" stroke-linecap="round" stroke-linejoin="round" stroke-width="2.62" d="M60.56 176c15.38-4.27 34.31-5.43 34.82-7.59S80 151.2 65.49 150.18c-7-.49-13 7.9-9.33 13.57-6.78 5.25-1.73 13.95 4.4 12.25"/><path stroke="#2D1F04" stroke-linecap="round" stroke-linejoin="round" stroke-width="2.62" d="M56.16 163.75c10.16-1.91 21.3-3.62 39.22 4.65"/><path fill="#B6B1AE" d="M70.48 156.65c8.86-1.18 12.66-1.18 20.5.94 1.52-4.58 1.21-8.5-2.72-9.34a26 26 0 0 0-17.78 8.4"/><path stroke="#2D1F04" stroke-linecap="round" stroke-linejoin="round" stroke-width="2.62" d="M70.48 156.65c8.86-1.18 12.66-1.18 20.5.94 1.52-4.58 1.21-8.5-2.72-9.34a26 26 0 0 0-17.78 8.4"/><path fill="#FFDB1F" d="M174.27 179.33c-.47 3-1.11 6.64-1.58 9-.82.06-3.53 3-4.21 4.07-1.32 2 .59 4.26.33 5.35-.22.93-3.61 24.52-6.33 37.64-8.26-3.47-27.19-11.14-31.08-15-.28-.29-.57-.52-.8-.76-.88-.85-2.13-5.73 1.4-8.12.41-1.18.88-2.46 1.38-3.81 9.11-24.54 24.5-32.3 40.88-28.36zm168.38 83.72a191 191 0 0 1-2.87-38 356 356 0 0 1 2.87 38"/><path fill="#3F2719" d="M174.28 179.33c-.48 3-1.12 6.65-1.59 9-.82.06-3.53 3-4.21 4.08-1.31 2 .59 4.25.32 5.35-.22.93-3.6 24.5-6.32 37.62-3.45-1.44-8.76-3.62-14.06-6 2.87.63 5.86.34 6.35-1.74.64-2.78.6-5.59-1.32-6.31 2.56-.33 4.63-11.6 6.12-17.33 1.35-5.24 5.88-21.64 13-25 .56.1 1.13.22 1.69.36z" opacity="0.23" style="mix-blend-mode:multiply"/><path fill="#FFDB1F" d="M342.65 263.05a191 191 0 0 1-2.87-38 356 356 0 0 1 2.87 38"/><path fill="#CAA77A" d="M322.54 160.64c-6.32 3-12 6.28-20 9.94-12.53 5.72-23.84 12.26-36.88 16.08a161.7 161.7 0 0 1-35.5 5.34c-9.48.622-18.997.411-28.44-.63a187 187 0 0 1-32.06-5.9c.1-.64 0-.87-.25-.8.13-2.37.23-6 .25-9.1 0-2.93-.06-5.59-.29-5.67a2.34 2.34 0 0 0-1.61 1.84c-2.19-4 1-7.4.68-9.68-.06-.51-1.33.16-2.15 1.94-.35-3.38.94-4.41.77-5.63-.35-2.46-1.91-5-3-7.14-12.36-24.76-35.57-72.91 1.19-106.59-2.44-3.37-7.44-1.51-7.44-1.53 0-4.94 7.91-10.17 18.71-9 .35-.53-3.63-4.39.38-9.73.69 3.94 4.28 7.69 5.15 5.73 2.36-10.7 9.13-16.63 18.91-18.53-3.06 2.67-4.37 8.44-2.86 13.56 0 0 3.08-6.66 6.68-8.21-3.22 6.25-.11 9.58 1.83 10.05 1.53.39 8.08-3.07 7.91-6.23 1.88.63 1.53 4.53 18 9.93 69.7 22.96 89.95 89.02 90.02 129.96"/><path fill="#B6B1AE" d="m241.05 269-.48-.72z"/><path fill="#FFDBAF" d="M148.49 81.29c2.32-9.46 14-16.52 21.11-21.4 8.27-5.69 38.28-11.57 32.35-20.12 10.39 1.33 17.87 10.54 26.86 10.57 9.38 0 30.4 5.62 45.86 27.55 3.11 4.4 16.78 42.55-13.18 62.59-22.89 15.31-76.37 20.14-99.8-9.45-10.97-13.86-16.31-32.03-13.2-49.74"/><path fill="#9D7B51" d="M196.59 79.34c-7.91-4-14 15.85-14.66 21.58-1.65 14.58 3.26 22.1 11.81 24.67s19.35 1.18 27.69-4.16c21-13.45-1.35-48.32-15.1-42.82"/><path fill="#9D7B51" d="M151.18 112.31c13.95-1.13 47-17 29.79-59-9.44 1.27-18.29 4.53-29.07 14.09-7.08 15.6-4.85 32.08-.72 44.91m74.2-59.02c-13.76 64.92 54.19 60.11 54.19 60.11s5.55-24.25-8.69-42.48C262.18 59.79 244 52 225.38 53.29"/><path stroke="#9D7B51" stroke-linecap="round" stroke-linejoin="round" stroke-width="3.87" d="m189.29 162.53-.04 6.56m-6.59-3.15-.04 6.56"/><path fill="#3F2719" d="M159 41.1a1.8 1.8 0 0 0-.32.21.33.33 0 0 0-.08.26" opacity="0.23"/><path fill="#251707" d="M190.93 79.79c-.12-2.66 4.71-5.08 10.8-5.41S212.85 76 213 78.62s-4.71 5.08-10.8 5.41-11.15-1.58-11.27-4.24"/><path stroke="#2D1F04" stroke-linecap="round" stroke-linejoin="round" stroke-width="2.62" d="M169.31 183.56c.24-1.23.72-13.44.23-13.6a2.4 2.4 0 0 0-1.069.698 2.4 2.4 0 0 0-.551 1.152c-2.18-4 1-7.41.69-9.69-.06-.51-1.34.17-2.15 1.95-.35-3.39.95-4.41.77-5.63-.35-2.46-1.91-5-3-7.15-12.38-24.75-35.59-72.91 1.18-106.59-2.41-3.37-7.41-1.5-7.41-1.53 0-4.93 7.92-10.17 18.72-9 .35-.53-3.63-4.4.38-9.74.69 3.94 4.28 7.69 5.15 5.73 2.36-10.69 9.14-16.63 18.91-18.53-3.06 2.68-4.37 8.44-2.87 13.56 0 .08 3.06-6.64 6.69-8.21-3.7 5.62-.29 9.53 1.65 10 1.53.39 8.26-3 8.09-6.19 1.88.63 1.54 4.54 17.95 9.93 69.88 23 89.95 89 89.95 129.89"/><path stroke="#2D1F04" stroke-linecap="round" stroke-linejoin="round" stroke-width="2.62" d="M201.29 83.62c-.5 4.46.33 10.51 2.68 16.77"/><path fill="#3F2719" d="m215 261.5-.56-.28z" opacity="0.23"/><path fill="#3F2719" d="M322.54 160.64c-5.59 2.79-14.65 7.41-20 9.94 1.28-31.06-6.49-77.58-30-104.7a80.34 80.34 0 0 0-54.33-28.07c-1.5-.13-4.22-2.49-6.39-2.24a1.48 1.48 0 0 1-.262 1.4 1.49 1.49 0 0 1-1.318.54c-1.6 0-4.85-.75-4.29-3.61-3.12.37-3.92 4.07-5.63 4.29S195.91 34.6 192 35c2.12 3-.77 5.48-3 6.35-2.62 1-4.28-.23-3.63-1.9-2.73.34-3.62 2.91-9.19 5.58a89.8 89.8 0 0 0-24.07 16.37 61.7 61.7 0 0 1 13.12-16.72c-2.44-3.37-7.44-1.51-7.44-1.53 0-4.94 7.92-10.17 18.71-9 .35-.53-3.62-4.39.38-9.73.69 3.93 4.28 7.69 5.15 5.72 2.36-10.69 9.14-16.62 18.91-18.52-3.06 2.67-4.37 8.44-2.86 13.56 0 0 3.08-6.66 6.68-8.21-3.26 6.03-.1 9.58 1.84 10.03 1.53.39 8.09-3.07 7.91-6.23 1.88.63 1.54 4.53 18 9.92 69.72 22.95 89.96 89.01 90.03 129.95" opacity="0.23" style="mix-blend-mode:multiply"/><path stroke="#2D1F04" stroke-linecap="round" stroke-linejoin="round" stroke-width="7.6" d="M188.3 55.37c-29.3.63-46.3 23-46.3 23m76.86-25.19c40.48-.39 55.76 21.38 55.76 21.38"/><path fill="#251707" d="M193.07 115.07c.62-3.8 1.24-10.07-1.85-15.1 4.36 1.35 12-.06 12.33-1.94 2 .93 7.88-1.25 10.47-4.75 10.12 23.63-11.54 26.36-20.95 21.79"/><path fill="#fff" d="M193 115.29c.325-1.894.512-3.809.56-5.73 4.88 1.18 13.54 1.13 19.32-5.15 1 .85 2 2.48 1.65 7.07-3.98 5.79-13.74 7.1-21.53 3.81"/><path fill="#fff" d="M212.87 104.41c-4.47 5.54-13.55 6.68-19.32 5.15-.21-2.49-.76-7-2.18-9.27 4.49.21 9.87-.65 12.33-1.94a29.5 29.5 0 0 0 8.51-3.68c1.03 2.38 1.45 7.7.66 9.74"/><path fill="#D3E5EA" d="M214.52 111.44a12.82 12.82 0 0 1-7.45 4.89l-.18-1a5.42 5.42 0 0 0 3.76-6c-.22-1.49-2.1-1.32-6 0 5.25-2.13 5.64-5.55 5.73-7.14s-.1-3.82-1.29-3.08a27.4 27.4 0 0 1-8.66 2.81c-2.43.43-6.62.55-6.62 1.75a24.4 24.4 0 0 0 .33 4.47c.26 1.49 2.49 2.18 5 2-.16 0-4.47 0-4.93 1.22-.28.74-1.29 3.1 4 4.06v1.28a22 22 0 0 1-5.19-1.48 41 41 0 0 0 .56-5.74c-.21-2.49-.77-7-2.19-9.27 4.49.21 9.87-.64 12.33-1.93a29.8 29.8 0 0 0 8.51-3.69c1 2.39 1.45 7.71.66 9.74.97.88 1.96 2.51 1.63 7.11"/><path stroke="#2D1F04" stroke-linecap="round" stroke-linejoin="round" stroke-width="2.62" d="M191.19 100c8 1.43 16.73-1.58 22.86-6.7 10.35 23.85-11.52 26.37-21 21.79"/><path fill="#fff" d="M178.64 87c-.95 5.36-6.63 5.58-12.79 6-7.21.43-14.95 0-14.51-8.3.33-6.12 6.67-8.56 15.93-8.72s12.57 4.26 11.37 11.02"/><path fill="#D3E5EA" d="M178.82 85.67c-2.74-5.63-8.28-6.55-15.29-5.36-7.41 1.29-10.82 4.2-11.83 7.89a11.1 11.1 0 0 1-.36-3.58c.33-6.11 6.68-8.56 15.93-8.73 8.64-.14 12.1 3.79 11.55 9.78"/><path fill="#2D1F04" d="M159.6 85.79a6.082 6.082 0 0 1 10.39-4.279 6.079 6.079 0 0 1-4.33 10.369 6.08 6.08 0 0 1-6.06-6.09"/><path stroke="#2D1F04" stroke-linecap="round" stroke-linejoin="round" stroke-width="2.62" d="M178.64 87c-.93 5.29-6.72 5.51-12.79 6-7.3.53-14.95.07-14.51-8.3.33-6.12 6.67-8.56 15.93-8.72s12.57 4.26 11.37 11.02"/><path fill="#fff" d="M161.18 85.8a2.68 2.68 0 1 0 0-5.36 2.68 2.68 0 0 0 0 5.36m1.02 2.91a1.02 1.02 0 1 0 0-2.04 1.02 1.02 0 0 0 0 2.04M263.81 83c-.72 5.12-7.65 5.13-14.17 5.88-8.38 1-16.69 1.06-16.67-7.59 0-6.14 7-8.74 17.41-9.11s14.38 4 13.43 10.82"/><path fill="#D3E5EA" d="M263.93 80.61c-3.77-4.58-10.17-5.07-18-3.61-6.82 1.25-10.8 3.38-12.8 6q-.135-.889-.13-1.79c0-6.14 7-8.74 17.4-9.11 9.12-.31 13.3 3.09 13.53 8.51"/><path fill="#2D1F04" d="M243.81 81.77a4.672 4.672 0 0 1 5.408-4.788 4.669 4.669 0 1 1-5.408 4.788"/><path stroke="#2D1F04" stroke-linecap="round" stroke-linejoin="round" stroke-width="2.78057" d="M263.81 83c-.72 5.12-7.65 5.13-14.17 5.88-8.38 1-16.69 1.06-16.67-7.59 0-6.14 7-8.74 17.41-9.11s14.38 4 13.43 10.82"/><path fill="#2D1F04" d="M242.67 81.59a6.379 6.379 0 0 1 12.645-1.173 6.38 6.38 0 0 1-2.76 6.534 6.379 6.379 0 0 1-9.885-5.361"/><path fill="#fff" d="M244.33 81.6a2.82 2.82 0 1 0 0-5.64 2.82 2.82 0 0 0 0 5.64m1.07 3.05a1.07 1.07 0 1 0 0-2.14 1.07 1.07 0 0 0 0 2.14"/><path stroke="#2D1F04" stroke-linecap="round" stroke-linejoin="round" stroke-width="2.62" d="M127.94 229.41c6.5 11.59 10.21 19.45 13.18 30.43"/><path fill="#CAA77A" d="M369.65 265.88c39.69-15.24 62.09-87 69-115.6-6.4-2.37-33.46-8.12-39.14-4.42-10.6 6.88-23.37 36-36.3 36.39-19.7.65-27.59-17-43.73-20.07-8.41 4.45-15.94 7.73-29.09 14 8.73 27.4 12.93 43.94 25.94 60.32 16.91 21.32 35.51 36.22 53.32 29.38"/><path fill="#FFDB1F" d="M342.65 263.23v2.47c-1.84.72-5.14 2.87-5.17 4.47-.19 11.85-.68 24.63-3.49 34.62-46 5.59-69.53 5.93-112.75 4.42-28.06-1-53.87-2.52-73.18-13.94a42.5 42.5 0 0 1-.49-6.47c.31-7.62 5.22-31.78 14.67-52.23-1.39-3.35-1.73-7.78-1.47-12.5.77-13.38 6.41-29.16 6.49-30.11.11-1.12-2.11-3.08-1.1-5.24.52-1.12 2.77-4.46 3.57-4.65.24-.07.35.16.25.8a172.7 172.7 0 0 0 32 5.89c4.56.36 9.43.61 12.58.77 3.39.18 9.63.62 15.87.37 19-.75 32.88-4 35.54-5.37 6.31-2.81 24.88-10.66 35.54-19.39a28.45 28.45 0 0 1 9.908-5.362 28.45 28.45 0 0 1 11.212-1.098c11.29 1.45 21.9 8.45 29.14 13.92 3.53-.71 8.72 3.05 7.19 5.58-9.6 11.9-15.53 28.18-17.88 46.57-1.51 11.84-.72 23.08 1.48 36.3z"/><path fill="#3F2719" d="M342.69 265.7c-1.84.72-5.14 2.87-5.17 4.47-.19 11.85-.68 24.63-3.49 34.62-19.38 2.36-34.76 3.78-49.31 4.52 10.08-.62 20.29-3.48 24.78-9.47 3.82-5.1 4.86-14.69 5.17-25.42.291-8.671.101-17.351-.57-26 6.82 6.38 11.12 10.08 14.69 12s9-2.37 8.73-10.39a65.9 65.9 0 0 1 3.87-24.83c-.09.51-.15 1-.22 1.54-1.52 11.83-.72 23.08 1.48 36.3v.18c.03.85.04 1.67.04 2.48m16.36-85.52a69.4 69.4 0 0 0-7.6 11.75c-1.2-3.47-6.8-5.9-8.44-5.6-1.43-1.49-4.63-4.37-12.35-8.93-6.39-3.78-21.43-10.27-30.93-8.8.65-.48 1.26-1 1.87-1.46a28.45 28.45 0 0 1 9.908-5.362 28.45 28.45 0 0 1 11.212-1.098c11.29 1.45 21.9 8.46 29.14 13.92 3.53-.71 8.72 3.04 7.19 5.58" opacity="0.23" style="mix-blend-mode:multiply"/><path fill="#B6B1AE" d="M203.26 109.72c.46-.09.92-.22 1.38-.34-.46.13-.92.25-1.38.34"/><path fill="#fff" d="M203.26 109.72c.46-.09.92-.22 1.38-.34-.46.13-.92.25-1.38.34"/><path fill="#fff" d="M203.26 109.72c.46-.09.92-.22 1.38-.34-.46.13-.92.25-1.38.34"/><path fill="#3F2719" d="M438.64 150.28c-6.9 28.58-29.29 100.37-69 115.6-9.11 3.5-18.43 1.3-27.62-4.52a143 143 0 0 1-1.41-19.78c27.54 18.28 51.68-13.51 61.06-33.72 9.56-20.59 17.06-40.83 20.84-61.45a116 116 0 0 1 16.13 3.87" opacity="0.23" style="mix-blend-mode:multiply"/><path fill="#B6B1AE" d="M405.6 94.78c-.47-10.21 5.09-19.35 9.78-24.84 7.36-8.6 18.72-14.84 21.42-10.55 2.83 4.49-3.05 12.11-5.49 22.62-1.27 5.48-3 13.32-1.11 20 6.36 6.68 11.83 12.64 12.09 27.35s-5.79 29.69-13.68 36.89a29.4 29.4 0 0 1-10.61 6.41c-11.11 3.64-25.74 2.5-33.55-1.64-8.22-4.35-12.94-13-13.77-22.13a31.8 31.8 0 0 1 .41-8.71c-2.33-6.79-1.7-17.18 1.59-22.9-1-5.09.23-16 6.36-21.63 4.61-4.25 16.06-3.24 26.6-.87 3.64.82 7.18 1.8 10.28 2.78"/><path fill="#3F2719" d="M442.28 129.36c.27 14.84-5.79 29.69-13.68 36.9a29.3 29.3 0 0 1-10.66 6.4c-11.1 3.65-25.72 2.5-33.54-1.64a23.9 23.9 0 0 1-7-5.6c3.52-8.54 25.26.84 33.55.49 9.86-.42 17.05-13.23 20.52-24.51s1.27-28.48-3.87-33.42-5.48-12-2.78-21.71c4.48-16 12.61-22.62 11-27.79 2.24 1.53 1.74 4.37 1.61 5.17-.7 4.5-4.33 10.66-6.11 18.37-1.28 5.47-3 13.31-1.12 20 6.35 6.68 11.8 12.63 12.08 27.34" opacity="0.23" style="mix-blend-mode:multiply"/><path fill="#3F2719" d="M372.63 117.28c3.55-7.06 14.85-6.87 19.16-8a15.1 15.1 0 0 1 12.06 1.88 40.8 40.8 0 0 1 8.41 6.09c-8.9-2.65-25.47-5.91-39.63.03m-2.38 23.05c3.39-8.13 15-7.11 19.38-8s8.46-.46 11.92 2.3a47.4 47.4 0 0 1 7.74 7.77c-12.66-5.4-24.65-7.4-39.04-2.07" opacity="0.23" style="mix-blend-mode:multiply"/><path stroke="#2D1F04" stroke-linecap="round" stroke-linejoin="round" stroke-width="2.78057" d="M405.6 94.78c-.47-10.21 4.76-19.65 9.78-24.84 7.34-7.58 18.72-14.84 21.42-10.55 2.83 4.49-1.68 9.21-5.49 22.62-1.53 5.41-3 13.32-1.11 20 6.36 6.68 11.83 12.64 12.09 27.35s-5.79 29.69-13.68 36.89a29.3 29.3 0 0 1-10.61 6.41c-11.11 3.64-25.74 2.5-33.55-1.64-8.22-4.35-12.94-13-13.77-22.13a31.8 31.8 0 0 1 .41-8.71c-2.33-6.79-1.7-17.18 1.59-22.9-1-5.09.23-16 6.36-21.63 4.61-4.25 16.06-3.24 26.6-.87 3.64.82 7.18 1.8 10.28 2.78"/><path stroke="#2D1F04" stroke-linecap="round" stroke-linejoin="round" stroke-width="2.78057" d="M372.63 117.28c11.39-4.8 27.94-3.74 38.31-.29M371 140.18c10.31-5.81 28.51-2.66 37.19 2.22"/><path fill="#FFDB1F" d="M342.69 263.24v-.18c-.03.06-.01.11 0 .18"/><path stroke="#2D1F04" stroke-linecap="round" stroke-linejoin="round" stroke-width="2.62" d="M342.69 265.7c-1.74 1.31-5.14 2.87-5.17 4.47-.19 11.85-.68 24.62-3.49 34.62"/><path stroke="#2D1F04" stroke-linecap="round" stroke-linejoin="round" stroke-width="2.62" d="M330.89 261.86c.76 2.28 1.62 4.16 6.63 8.31-4.48-1.87-10.32-5.73-13.25-8.95"/><path fill="#2D1F04" d="M183.48 226.66c8 .22 15.38.21 22.77.49 6.07.23 8.62 4.17 7.93 7.95-.94 5.21-5.59 8.68-12.2 10.29-.35.09-.69.14-1.39.27 5.17 3.47 3.39 10 8.94 15.88-5.5-.3-10.4-.56-15.45-.81a22.1 22.1 0 0 1-4.14-11.08c-.2-2-.82-3.5-4.38-3-2.74 4.37-5.16 8.89-5.07 13.62-4.29-.14-8-.23-11.6-.25 2.56-12.72 13.26-20.41 14.59-33.36m9.91 6.73a38.6 38.6 0 0 1-3.53 6.72c2.51-.05 4.92 0 7.46-.15a5.82 5.82 0 0 0 4.85-3c.85-1.73.14-3.1-2-3.35s-4.4-.16-6.78-.22"/><path fill="#2D1F04" d="m247.63 237.46-10.28.39c.07-3.09-1.68-4.82-4.62-4.94a4.33 4.33 0 0 0-4.51 2.58c-.24 1.76.8 2.38 2.14 2.79 2.46.75 5 1.44 7.37 2.26a24 24 0 0 1 3.82 1.68c7.65 4.13 5 14-.52 18.29a14.4 14.4 0 0 1-6.92 2.71 39 39 0 0 1-14.39-1.14c-6.7-1.73-11.08-6.32-9.09-12h11.5q.03 1.005.18 2c.64 3.37 4.91 5.15 8.71 4a4.15 4.15 0 0 0 3.2-3.15 2.84 2.84 0 0 0-1.75-3.25 35 35 0 0 0-3.6-1.33 79 79 0 0 1-7.44-2.66c-4.39-2.1-5.24-5.48-3.84-9.4 1.57-4.37 4.23-8 8.73-9.41a22 22 0 0 1 13.74 0c5.11 1.65 8.01 5.06 7.57 10.58"/><path fill="#3F2719" d="M154.55 256.22a42.6 42.6 0 0 1 10.3-8.56c4.71-3 10.55-3.25 15.78-2.5 14.14 2 39.78 10 54.22 11.92 26.38 3.48 49.27-6.25 46.56-10.19-2.28-3.3-41.69 6.59-56.54 1.45-13.18-4.57-33.81-5.38-47.36-7.63-3.25-.55-13.9-3.28-16.64-8.21a7 7 0 0 0 1.23 4 141.5 141.5 0 0 0-7.55 19.72" opacity="0.23" style="mix-blend-mode:multiply"/><path stroke="#2D1F04" stroke-linecap="round" stroke-linejoin="round" stroke-width="2.62" d="M169.83 185.61c.12-.7 0-.94-.24-.87-.81.18-3.05 3.53-3.57 4.65-1 2.16 1.21 4.12 1.1 5.24-.12 1.28-10.39 29.71-5 42.61"/><path stroke="#2D1F04" stroke-linecap="round" stroke-linejoin="round" stroke-width="2.62" d="M167.66 194c6.43 4.24 18.7 6.51 31.74 8a200.3 200.3 0 0 0 70.67-4.37m-93.21-9.8a15.6 15.6 0 0 0-1.28 5.37"/><path stroke="#2D1F04" stroke-linecap="round" stroke-linejoin="round" stroke-width="2.62" d="M188.35 190.13a13.8 13.8 0 0 0-1 5.88m57.21-4.09v2.55m3.83-2.55v2.04M147.91 295.23a44 44 0 0 1-.48-6.47c.31-7.63 5.21-31.79 14.67-52.23"/><path stroke="#2D1F04" stroke-linecap="round" stroke-linejoin="round" stroke-width="2.62" d="M169.83 185.53a191 191 0 0 0 52 6.82c19.07 0 36.82-2.82 44.06-5.65a157.3 157.3 0 0 0 24.5-12c4-2.38 8.62-6.07 12.83-8.75 6.66-4.25 14.15-6.3 19.33-5.27 10.69 1.78 21.67 8.74 29.32 14.21 3.73-.71 8.38 3.54 7.19 5.32-15.79 19.6-22.06 51.68-16.36 85.53"/><path stroke="#2D1F04" stroke-linecap="round" stroke-linejoin="round" stroke-width="2.62" d="M294.69 172.06c-4.75 3.25-8.93 10.78-10 17.46m95.96-20.98c-5.65 7.32-11.53 13.51-17.45 13.71a30 30 0 0 1-5.54-.32m-15.04 79.81c9 5.54 18.11 7.56 27 4.14 39.69-15.24 62.09-87 69-115.6m-301.73 73.65a26.4 26.4 0 0 1-5.49-3.55c-.28-.29-.57-.52-.8-.76-.88-.85-2.09-5.51 1.4-8.12.41-1.18.88-2.46 1.38-3.81 8.25-22.21 21.63-30.67 36.24-29.16m182.24-3.68c-9.33 9.67-20.68 27.18-19.81 59"/><path stroke="#2D1F04" stroke-linecap="round" stroke-linejoin="round" stroke-width="2.62" d="M343.35 185.77a7.37 7.37 0 0 1 3.93 1.62m-6.85 3.61c1.11.16 3.19.48 4.18 1.36m-10.81 18.41c1.862.065 3.705.402 5.47 1M132 211.5a151 151 0 0 0 24.2 10.8"/><path stroke="#2D1F04" stroke-linecap="round" stroke-linejoin="round" stroke-width="2.62" d="M139.52 215.41c-1.17.66-2 3-2.06 4.12m8.91-1a6.07 6.07 0 0 0-1.29 3.18m195.54 19.86c.001 6.621.463 13.233 1.38 19.79.19 1.44.41 2.88.66 4.34"/></g><defs><clipPath id="a"><path fill="#fff" d="M0 0h454.73v321.6H0z"/></clipPath></defs></svg>